<?xml version="1.0" encoding="UTF-8"?>
<!DOCTYPE svg PUBLIC "-//W3C//DTD SVG 1.1//EN" "http://www.w3.org/Graphics/SVG/1.1/DTD/svg11.dtd">
<svg xmlns="http://www.w3.org/2000/svg" version="1.1" width="40px" height="40px" style="shape-rendering:geometricPrecision; text-rendering:geometricPrecision; image-rendering:optimizeQuality; fill-rule:evenodd; clip-rule:evenodd" xmlns:xlink="http://www.w3.org/1999/xlink">
<g><path style="opacity:0.747" fill="#789ac6" d="M 39.5,20.5 C 39.5,23.1667 39.5,25.8333 39.5,28.5C 38.6836,30.1436 37.3502,31.3103 35.5,32C 24.5,32.6667 13.5,32.6667 2.5,32C 1.30943,31.3021 0.309426,30.4687 -0.5,29.5C -0.5,27.1667 -0.5,24.8333 -0.5,22.5C 0.47449,21.365 1.64116,20.365 3,19.5C 3.38139,14.2864 6.21472,11.6198 11.5,11.5C 12.8489,7.82127 15.5155,6.1546 19.5,6.5C 24.0685,8.3338 28.7351,10.1671 33.5,12C 34.7945,15.4464 36.7945,18.2797 39.5,20.5 Z"/></g>
<g><path style="opacity:1" fill="#c1e6fe" d="M 16.5,7.5 C 20.1638,6.99989 23.1638,8.16655 25.5,11C 29.2323,10.812 32.0656,12.312 34,15.5C 35.7601,18.4106 37.2601,21.4106 38.5,24.5C 38.5938,26.9116 37.5938,28.745 35.5,30C 24.9319,31.6188 14.2653,31.9522 3.5,31C -0.573009,27.3444 -0.406342,23.8444 4,20.5C 4.71115,15.6231 7.54448,12.9565 12.5,12.5C 13.8569,10.8144 15.1902,9.14772 16.5,7.5 Z"/></g>
</svg>
